<?xml version="1.0" encoding="UTF-8" standalone="no"?>
<!DOCTYPE svg PUBLIC "-//W3C//DTD SVG 1.1//EN" "http://www.w3.org/Graphics/SVG/1.1/DTD/svg11.dtd">
<svg width="100%" height="100%" viewBox="0 0 13 21" version="1.1" xmlns="http://www.w3.org/2000/svg" xmlns:xlink="http://www.w3.org/1999/xlink" xml:space="preserve" xmlns:serif="http://www.serif.com/" style="fill-rule:evenodd;clip-rule:evenodd;stroke-linejoin:round;stroke-miterlimit:2;">
    <g transform="matrix(0.5,0,0,0.5,3.18099,9.44)">
        <path d="M3.12,1.52C3.76,2.32 4.32,3.08 4.84,3.92C4.92,4.08 5.08,4.4 5.08,4.48C5.08,4.52 5.08,4.6 5.04,4.64C4.96,4.8 4.8,4.84 4.6,4.84C4.44,4.84 4.12,4.76 3.96,4.72C3.76,4.72 3.52,4.6 3.32,4.6C1.6,4.6 0.04,6.32 0.04,8.44C0.04,10.44 1.76,12.4 4.68,14.64C5,14.88 5.4,15 5.72,15C6,15 6.28,14.92 6.32,14.76C6.36,14.64 6.4,14.56 6.4,14.48C6.4,14.12 6.08,13.8 5.76,13.52C5.24,13.52 4.8,12.44 4.72,12.08C4.6,11.76 4.56,11.4 4.56,11.04C4.56,9.8 5.16,8.4 6.44,8.16C6.64,8.12 6.84,8.12 7.08,8.12C8.24,8.12 9.56,8.56 10.2,8.8C10.24,8.8 10.28,8.84 10.32,8.84C10.44,8.88 10.52,8.88 10.6,8.88C10.72,8.88 10.8,8.84 10.8,8.72C10.8,8.24 9.76,6.92 9.32,6.44C7.8,4.6 6.56,3.12 6.56,0.88C6.56,0.72 6.6,0.52 6.6,0.36C6.76,-1.96 8.2,-3.88 9.24,-5.52C9.36,-5.72 9.4,-5.92 9.4,-6.12C9.4,-6.52 9.24,-6.88 9.24,-6.88C9.24,-6.88 3.32,-13.92 2.64,-14.6C2.44,-14.8 2.16,-14.92 1.92,-14.92C1.52,-14.92 1.12,-14.64 1.12,-14.08C1.12,-13.88 1.16,-13.68 1.28,-13.44C1.44,-13 3.72,-10.96 3.72,-8.08C3.72,-6.6 3.12,-4.88 1.32,-3C0.92,-2.6 0.76,-2.16 0.76,-1.84C0.76,-1.28 1.16,-0.88 1.16,-0.88L3.12,1.52" style="fill-rule:nonzero;"/>
    </g>
</svg>
