<?xml version="1.0" encoding="UTF-8" standalone="no"?>
<!DOCTYPE svg PUBLIC "-//W3C//DTD SVG 1.1//EN" "http://www.w3.org/Graphics/SVG/1.1/DTD/svg11.dtd">
<svg width="100%" height="100%" viewBox="0 0 21 26" version="1.1" xmlns="http://www.w3.org/2000/svg" xmlns:xlink="http://www.w3.org/1999/xlink" xml:space="preserve" xmlns:serif="http://www.serif.com/" style="fill-rule:evenodd;clip-rule:evenodd;stroke-linejoin:round;stroke-miterlimit:2;">
    <g id="path130" transform="matrix(1.24175,0,0,1.25291,-649.239,-92.6638)">
        <path d="M531.711,83.133L532.203,81.771L532.287,81.231L532.177,81.269C531.22,81.586 530.384,81.707 529.884,81.566C529.407,81.449 528.989,81.129 528.79,80.73C528.649,80.492 528.63,80.332 528.63,80.031C528.63,79.812 528.63,79.773 528.669,79.613C528.849,79.117 529.247,78.758 529.767,78.66C530.083,78.578 530.442,78.637 530.72,78.816C531.021,79.015 531.161,79.258 531.278,79.793C531.399,80.332 531.458,80.433 531.638,80.531C531.837,80.609 531.958,80.59 532.177,80.41C532.334,80.278 532.587,80 532.792,79.74L533.746,77.374L533.508,77.456C532.551,77.773 531.715,77.894 531.215,77.753C530.738,77.636 530.32,77.316 530.121,76.917C529.98,76.679 529.961,76.519 529.961,76.218C529.961,75.999 529.961,75.96 530,75.8C530.18,75.304 530.578,74.945 531.098,74.847C531.414,74.765 531.773,74.824 532.051,75.003C532.352,75.202 532.492,75.445 532.609,75.98C532.73,76.519 532.789,76.62 532.969,76.718C533.168,76.796 533.289,76.777 533.508,76.597C533.746,76.398 534.203,75.863 534.383,75.562C534.422,75.503 534.484,75.421 534.523,75.382C534.645,75.285 534.844,75.324 534.941,75.445L534.98,75.503L533.326,80.431L532.454,83.441C531.988,84.991 530.807,88.387 530.118,90.361C529.642,92.028 529.279,93.304 529.279,93.319C528.677,93.716 528.122,93.254 528.122,93.254L530.93,85.63L531.1,84.974C531.09,84.98 531.08,84.989 531.068,85L530.841,85.082C529.93,85.399 529.134,85.52 528.658,85.379C528.204,85.262 527.807,84.942 527.617,84.543C527.483,84.305 527.465,84.145 527.465,83.844C527.465,83.625 527.465,83.586 527.502,83.426C527.673,82.93 528.052,82.571 528.547,82.473C528.848,82.391 529.19,82.45 529.454,82.629C529.741,82.828 529.874,83.071 529.985,83.606C530.101,84.145 530.157,84.246 530.328,84.344C530.518,84.422 530.633,84.403 530.841,84.223C531.068,84.024 531.503,83.489 531.674,83.188C531.685,83.171 531.697,83.152 531.711,83.133Z"/>
    </g>
</svg>
